# Blender 3.6.9
# www.blender.org
mtllib test_roche.mtl
o Cube
v 0.490717 2.280052 -0.670097
v 0.671262 0.000000 -0.707870
v 0.999713 1.921234 0.320790
v 0.537158 0.000000 1.000000
v -0.860222 2.000000 -1.000000
v -1.290937 0.000000 -1.000000
v -0.541749 1.770440 0.963281
v -0.591143 0.000000 1.000000
v 0.000000 0.000000 -1.357677
v 0.000000 2.347353 1.000000
v -0.043672 0.153728 0.907585
v 0.000000 2.000000 -1.000000
v 1.000000 1.000000 -0.745370
v -0.588118 1.000000 1.000000
v 1.000000 1.000000 0.581685
v -1.000000 1.000000 -1.000000
v 0.000000 1.000000 -1.000000
v 0.000000 1.000000 1.316236
v -0.722063 1.500000 1.000000
v 1.000000 1.500000 -0.974694
v 0.796169 1.500000 0.581685
v -1.000000 1.500000 -1.000000
v 0.000000 1.500000 -1.000000
v 0.000000 1.500000 1.000000
v -0.501337 0.000000 -0.069950
v 1.000000 2.300659 0.000000
v -1.000000 2.269824 0.000000
v 1.000000 0.000000 0.000000
v 0.000000 0.000000 0.000000
v 0.000000 2.930707 0.000000
v 1.000000 1.000000 0.000000
v -1.000000 1.000000 0.000000
v 1.000000 1.500000 0.000000
v -0.768357 1.500000 0.000000
vn -0.5500 0.6703 0.4981
vn -0.0475 0.0404 0.9981
vn -0.9959 -0.0720 0.0555
vn -0.0998 -0.9936 0.0536
vn 0.9776 -0.1270 0.1677
vn 0.1696 0.2915 -0.9414
vn -0.0000 -0.0000 -1.0000
vn 0.1463 -0.9855 0.0865
vn 0.5345 0.0871 0.8407
vn 0.5311 0.6846 0.4992
vn 0.3666 -0.0957 0.9254
vn -0.1513 0.1953 -0.9690
vn 0.4750 0.0624 -0.8778
vn 0.9472 -0.1612 0.2772
vn -0.9201 -0.1087 0.3764
vn -0.1617 -0.2094 0.9644
vn 0.5056 0.3521 0.7877
vn 0.1352 -0.2215 -0.9658
vn 0.9657 0.1968 0.1692
vn -0.9681 0.2242 0.1121
vn -0.2262 0.2660 0.9371
vn -0.9704 0.0948 0.2223
vn 1.0000 -0.0000 -0.0000
vn -0.9586 -0.2428 0.1491
vn 0.9624 -0.1623 -0.2177
vn 0.3038 0.7851 -0.5398
vn -0.0000 -1.0000 -0.0000
vn 0.8961 0.3430 -0.2818
vn -0.9701 -0.0394 0.2393
vn -0.2885 0.8119 -0.5075
vt 0.750000 0.625000
vt 0.875000 0.625000
vt 0.875000 0.750000
vt 0.750000 0.750000
vt 0.562500 0.875000
vt 0.625000 0.875000
vt 0.625000 1.000000
vt 0.562500 1.000000
vt 0.562500 0.125000
vt 0.625000 0.125000
vt 0.625000 0.250000
vt 0.562500 0.250000
vt 0.250000 0.625000
vt 0.375000 0.625000
vt 0.375000 0.750000
vt 0.250000 0.750000
vt 0.562500 0.625000
vt 0.625000 0.625000
vt 0.625000 0.750000
vt 0.562500 0.750000
vt 0.562500 0.375000
vt 0.625000 0.375000
vt 0.625000 0.500000
vt 0.562500 0.500000
vt 0.125000 0.625000
vt 0.125000 0.750000
vt 0.500000 0.750000
vt 0.500000 0.875000
vt 0.375000 0.875000
vt 0.375000 0.250000
vt 0.500000 0.250000
vt 0.500000 0.375000
vt 0.375000 0.375000
vt 0.500000 0.500000
vt 0.375000 0.500000
vt 0.500000 0.625000
vt 0.375000 0.125000
vt 0.500000 0.125000
vt 0.500000 1.000000
vt 0.375000 1.000000
vt 0.500000 0.000000
vt 0.562500 0.000000
vt 0.375000 0.000000
vt 0.750000 0.500000
vt 0.125000 0.500000
vt 0.250000 0.500000
vt 0.625000 0.000000
vt 0.875000 0.500000
s 0
usemtl Material
f 30/1/1 27/2/1 7/3/1 10/4/1
f 24/5/2 10/6/2 7/7/2 19/8/2
f 34/9/3 27/10/3 5/11/3 22/12/3
f 29/13/4 28/14/4 4/15/4 11/16/4
f 33/17/5 26/18/5 3/19/5 21/20/5
f 23/21/6 12/22/6 1/23/6 20/24/6
f 22/12/7 5/11/7 12/22/7 23/21/7
f 25/25/8 29/13/8 11/16/8 8/26/8
f 21/20/9 3/19/9 10/6/9 24/5/9
f 26/18/10 30/1/10 10/4/10 3/19/10
f 4/15/11 15/27/11 18/28/11 11/29/11
f 6/30/12 16/31/12 17/32/12 9/33/12
f 9/33/13 17/32/13 13/34/13 2/35/13
f 28/14/14 31/36/14 15/27/14 4/15/14
f 25/37/15 32/38/15 16/31/15 6/30/15
f 11/29/16 18/28/16 14/39/16 8/40/16
f 15/27/17 21/20/17 24/5/17 18/28/17
f 16/31/7 22/12/7 23/21/7 17/32/7
f 17/32/18 23/21/18 20/24/18 13/34/18
f 31/36/19 33/17/19 21/20/19 15/27/19
f 32/38/20 34/9/20 22/12/20 16/31/20
f 18/28/21 24/5/21 19/8/21 14/39/21
f 14/41/22 19/42/22 34/9/22 32/38/22
f 13/34/23 20/24/23 33/17/23 31/36/23
f 8/43/24 14/41/24 32/38/24 25/37/24
f 2/35/25 13/34/25 31/36/25 28/14/25
f 1/23/26 12/44/26 30/1/26 26/18/26
f 6/45/27 9/46/27 29/13/27 25/25/27
f 20/24/28 1/23/28 26/18/28 33/17/28
f 9/46/27 2/35/27 28/14/27 29/13/27
f 19/42/29 7/47/29 27/10/29 34/9/29
f 12/44/30 5/48/30 27/2/30 30/1/30
